<?xml version="1.0" encoding="UTF-8" standalone="no"?>
<!-- Created with Inkscape (http://www.inkscape.org/) -->

<svg
   xmlns:dc="http://purl.org/dc/elements/1.1/"
   xmlns:cc="http://creativecommons.org/ns#"
   xmlns:rdf="http://www.w3.org/1999/02/22-rdf-syntax-ns#"
   xmlns:svg="http://www.w3.org/2000/svg"
   xmlns="http://www.w3.org/2000/svg"
   xmlns:sodipodi="http://sodipodi.sourceforge.net/DTD/sodipodi-0.dtd"
   xmlns:inkscape="http://www.inkscape.org/namespaces/inkscape"
   id="svg2"
   version="1.1"
   inkscape:version="0.48.4 r9939"
   width="630.825"
   height="184.5375"
   xml:space="preserve"
   sodipodi:docname="Rackspace_Cloud_Company_Logo_clr.eps"><metadata
     id="metadata8"><rdf:RDF><cc:Work
         rdf:about=""><dc:format>image/svg+xml</dc:format><dc:type
           rdf:resource="http://purl.org/dc/dcmitype/StillImage" /><dc:title></dc:title></cc:Work></rdf:RDF></metadata><defs
     id="defs6"><clipPath
       clipPathUnits="userSpaceOnUse"
       id="clipPath18"><path
         d="m 0,0 5046.63,0 0,1476 L 0,1476 0,0 z"
         id="path20" /></clipPath></defs><sodipodi:namedview
     pagecolor="#ffffff"
     bordercolor="#666666"
     borderopacity="1"
     objecttolerance="10"
     gridtolerance="10"
     guidetolerance="10"
     inkscape:pageopacity="0"
     inkscape:pageshadow="2"
     inkscape:window-width="1436"
     inkscape:window-height="1772"
     id="namedview4"
     showgrid="false"
     inkscape:zoom="0.7101811"
     inkscape:cx="315.41251"
     inkscape:cy="92.268753"
     inkscape:window-x="0"
     inkscape:window-y="24"
     inkscape:window-maximized="0"
     inkscape:current-layer="g10" /><g
     id="g10"
     inkscape:groupmode="layer"
     inkscape:label="ink_ext_XXXXXX"
     transform="matrix(1.25,0,0,-1.25,0,184.5375)"><g
       id="g12"
       transform="scale(0.1,0.1)"><g
         id="g14"><g
           id="g16"
           clip-path="url(#clipPath18)"><path
             d="m 776.133,1343.45 c 0.23,-0.08 0.39,-0.35 0.39,-0.63 0,-0.1 0,-0.18 -0.039,-0.23 -17.89,-50.74 -47.597,-108.48 -77.05,-152.27 -61.993,-92.08 -151.016,-150.15 -198.77,-129.68 -47.754,20.46 -36.262,111.74 25.801,203.85 13.996,20.68 29.305,39.62 45.168,56.37 0.129,0.13 0.215,0.3 0.215,0.49 0,0.38 -0.325,0.7 -0.727,0.7 0,0 -0.086,0 -0.086,-0.02 -19.515,-2.71 -39.277,-6.54 -59.199,-11.59 -0.156,-0.02 -0.274,-0.12 -0.391,-0.24 C 301.953,1053.25 212.766,719.539 225.051,421.84 l 0,-0.02 c 0,-0.41 -0.324,-0.699 -0.715,-0.699 0,0 -0.164,0 -0.242,0.027 C 100.559,470.941 10.3008,590.262 0.917969,741.324 l -0.117188,1.758 C -14.7852,1011.88 199.48,1287.22 479.434,1358.09 c 108.504,27.48 211.004,20.24 296.699,-14.64 z M 531.992,1190.62 c -20.078,-42.35 -12.082,-77.1 17.863,-77.64 29.981,-0.53 70.575,33.35 90.614,75.65 20.117,42.37 12.129,77.12 -17.852,77.67 -29.941,0.5 -70.539,-33.37 -90.625,-75.68"
             style="fill:#e3182c;fill-opacity:1;fill-rule:evenodd;stroke:none"
             id="path22" /><path
             d="m 696.926,618.512 c -20.364,-14.141 -41.594,-27.2 -63.535,-38.965 -0.079,-0.043 -0.203,-0.082 -0.203,-0.082 -0.473,0 -0.79,0.297 -0.833,0.68 -4.093,64.527 -17.968,127.054 -42.035,179.078 C 526.23,898.09 414.238,908.781 340.203,783.059 294.902,706.117 274.27,595.863 279.879,490.043 c 0,-0.297 0.199,-0.559 0.48,-0.637 78.528,-24.586 168.989,-27.285 265.469,-2.937 279.602,71.234 493.442,346.293 477.882,614.811 -13.67,235.87 -199.757,388.3 -434.3,374.17 0,0 -0.316,-0.08 -0.433,-0.2 -22.786,-23.09 -44.133,-46.39 -64.172,-69.9 -0.121,-0.12 -0.164,-0.28 -0.164,-0.44 0,-0.4 0.32,-0.72 0.679,-0.72 0,0 0.071,0 0.118,0.02 137.406,17.4 247.589,-10.53 319.464,-67.81 0.164,-0.12 0.293,-0.32 0.293,-0.54 0,-0.14 -0.05,-0.27 -0.129,-0.38 C 597.402,986.297 628.059,787.352 697.156,619.348 c 0.039,-0.082 0.039,-0.16 0.039,-0.27 0,-0.226 -0.109,-0.449 -0.269,-0.566"
             style="fill:#231f20;fill-opacity:1;fill-rule:evenodd;stroke:none"
             id="path24" /><path
             d="m 3889.76,528.289 c -0.16,0.184 -0.2,0.406 -0.16,0.582 l 11.82,59.914 c 0.14,0.934 -0.34,1.653 -1.18,1.813 -0.67,0.121 -1.21,-0.235 -1.53,-0.778 -26.13,-44.289 -77.35,-72.539 -134.87,-72.539 -94.51,0 -137.17,83.856 -137.21,167.789 -0.1,95.34 37.34,189.746 100.11,252.532 52.57,52.586 120.38,80.378 196.21,80.378 57.69,-0.24 100.31,-16.94 127.08,-49.339 39.6,-47.95 36.33,-119.953 26.47,-172.305 l -51.16,-267.731 c -0.04,-0.332 -0.35,-0.57 -0.68,-0.57 l -134.4,0 c -0.17,0 -0.39,0.098 -0.5,0.254 z m -52.78,353.231 c -38.15,-38.204 -66.86,-109.95 -66.82,-167.071 0.04,-50.137 18.64,-81.371 50.92,-81.371 51.72,0 96.29,54.098 111.65,133.297 3.43,17.695 6.93,35.707 9.43,51.707 2.5,16.004 4.05,30.121 3.59,39.98 -1.66,33.821 -19.28,52.071 -50.84,52.071 -19.31,0 -39.35,-10.004 -57.93,-28.613"
             style="fill:#231f20;fill-opacity:1;fill-rule:nonzero;stroke:none"
             id="path26" /><path
             d="m 3007.31,1017.98 c 58.45,0 101.63,-12.72 122.5,-24.511 0.24,-0.141 0.41,-0.434 0.32,-0.739 l -20.15,-105.878 c -0.05,-0.219 -0.2,-0.399 -0.4,-0.497 -0.2,-0.101 -0.45,-0.101 -0.64,0.02 -23.66,12.879 -64.54,26.621 -108.46,26.621 -36.86,0 -60.82,-15.43 -60.82,-41.293 0,-18.527 18.36,-35.152 57.24,-54.094 50.65,-25.308 107.87,-62.808 107.87,-130.57 0,-44.238 -14.75,-81.23 -43.81,-110.055 -38.65,-38.355 -101.34,-59.293 -176.79,-58.711 -57.96,0.957 -116.62,16.008 -146.01,37.258 -0.18,0.157 -0.3,0.434 -0.26,0.711 l 20.23,106.524 c 0.04,0.218 0.21,0.414 0.45,0.511 0.19,0.078 0.43,0.059 0.63,-0.058 31.41,-19.699 93.28,-40.934 138.69,-40.934 35.19,0 58.87,16.242 58.87,42.281 0,23.606 -16.66,40.106 -59.24,60.926 -67.31,33.664 -100.98,76.332 -100.98,126.645 0,98.968 84.29,165.843 210.76,165.843"
             style="fill:#231f20;fill-opacity:1;fill-rule:evenodd;stroke:none"
             id="path28" /><path
             d="m 4412.29,1017 c 35.88,0 72.5,-6.25 97.95,-16.68 0.33,-0.11 0.55,-0.453 0.45,-0.781 l -21.73,-114.043 c -0.06,-0.215 -0.18,-0.41 -0.42,-0.492 -0.18,-0.098 -0.42,-0.098 -0.64,0.019 -21.93,12.262 -47.3,18.188 -77.56,18.188 -101.2,0 -161.5,-88.207 -161.5,-173.215 0,-72.129 48.18,-97.969 93.12,-97.969 40.14,0 74.26,8.766 117.6,30.125 0.23,0.11 0.57,0.094 0.76,-0.058 0.19,-0.164 0.32,-0.446 0.29,-0.699 l -22.24,-117.161 c -0.04,-0.187 -0.16,-0.394 -0.35,-0.492 -32.89,-15.902 -83.77,-25.469 -136.15,-25.469 -122.82,0 -201.98,76.938 -201.98,196.098 0,172.52 134.24,302.629 312.4,302.629"
             style="fill:#231f20;fill-opacity:1;fill-rule:evenodd;stroke:none"
             id="path30" /><path
             d="m 2218.15,1017 c 35.9,0 72.53,-6.25 97.97,-16.68 0.33,-0.11 0.52,-0.453 0.43,-0.781 l -21.7,-114.043 c -0.07,-0.215 -0.2,-0.41 -0.41,-0.492 -0.23,-0.098 -0.47,-0.098 -0.66,0.019 -21.9,12.262 -47.32,18.188 -77.58,18.188 -101.19,0 -161.5,-88.207 -161.5,-173.215 0,-72.129 48.19,-97.969 93.12,-97.969 40.15,0 74.26,8.766 117.61,30.125 0.27,0.11 0.55,0.094 0.75,-0.058 0.25,-0.164 0.32,-0.446 0.28,-0.699 l -22.19,-117.161 c -0.04,-0.187 -0.2,-0.394 -0.39,-0.492 -32.88,-15.902 -83.78,-25.469 -136.15,-25.469 -122.81,0 -201.97,76.938 -201.97,196.098 0,172.52 134.23,302.629 312.39,302.629"
             style="fill:#231f20;fill-opacity:1;fill-rule:evenodd;stroke:none"
             id="path32" /><path
             d="m 1456.07,1018.96 c 8.42,0 18.76,-0.9 26.31,-2.28 0.2,-0.03 0.36,-0.13 0.49,-0.29 0.07,-0.18 0.11,-0.36 0.07,-0.54 l -27.35,-137.768 c -0.04,-0.176 -0.12,-0.336 -0.28,-0.437 -0.16,-0.118 -0.35,-0.137 -0.55,-0.118 -4.97,1.039 -12.85,2.246 -22.15,2.246 -96.5,0 -134.15,-94.347 -148.79,-172.355 L 1249.55,523.98 c -0.08,-0.335 -0.35,-0.574 -0.71,-0.574 l -140.71,0 c -0.23,0 -0.4,0.098 -0.52,0.258 -0.16,0.156 -0.21,0.375 -0.16,0.598 l 91.93,483.348 c 0.03,0.33 0.35,0.57 0.67,0.57 l 123.78,0.02 c 0.19,0 0.39,-0.08 0.55,-0.26 0.08,-0.12 0.16,-0.28 0.16,-0.44 l -15.78,-83.074 c -0.13,-0.555 0,-1.289 0.71,-1.656 0.72,-0.372 1.51,-0.129 1.99,0.617 36.98,61.371 88.07,95.573 144.61,95.573"
             style="fill:#231f20;fill-opacity:1;fill-rule:nonzero;stroke:none"
             id="path34" /><path
             d="m 1695.63,528.289 c -0.17,0.184 -0.21,0.406 -0.17,0.582 l 11.85,59.914 c 0.16,0.934 -0.36,1.653 -1.19,1.813 -0.63,0.121 -1.24,-0.235 -1.56,-0.778 -26.11,-44.289 -77.28,-72.539 -134.86,-72.539 -94.47,0 -137.17,83.856 -137.21,167.789 -0.08,95.34 37.37,189.746 100.12,252.532 52.55,52.586 120.4,80.378 196.21,80.378 57.7,-0.24 100.36,-16.94 127.07,-49.339 39.61,-47.95 36.35,-119.953 26.49,-172.305 l -51.17,-267.731 c -0.05,-0.332 -0.32,-0.57 -0.68,-0.57 l -134.36,0 c -0.23,0 -0.43,0.098 -0.54,0.254 z m -52.78,353.231 c -38.16,-38.204 -66.82,-109.95 -66.79,-167.071 0,-50.137 18.61,-81.371 50.94,-81.371 51.73,0 96.25,54.098 111.6,133.297 3.41,17.695 6.93,35.707 9.43,51.707 2.51,16.004 4.05,30.121 3.62,39.98 -1.68,33.821 -19.29,52.071 -50.86,52.071 -19.32,0 -39.32,-10.004 -57.94,-28.613"
             style="fill:#231f20;fill-opacity:1;fill-rule:nonzero;stroke:none"
             id="path36" /><path
             d="m 3462.04,1017.98 c 94.08,0 155.1,-71.312 155.1,-182.46 0,-116.551 -55.98,-236.075 -156.84,-289.852 -91.91,-48.98 -174.02,-27.496 -199.78,10.871 -0.06,0.082 -0.18,0.082 -0.18,-0.019 L 3225.99,375 c -0.04,-0.32 -0.36,-0.578 -0.69,-0.578 l -140.74,0 c -0.19,0 -0.38,0.098 -0.55,0.258 -0.11,0.16 -0.15,0.371 -0.11,0.582 l 120.78,635.388 c 0.08,0.31 0.36,0.58 0.72,0.58 l 123.77,-0.09 c 0.21,0 0.4,-0.1 0.53,-0.25 0.13,-0.19 0.18,-0.41 0.13,-0.59 l -12.28,-64.683 c -0.14,-0.711 -0.06,-1.566 0.66,-1.871 0.66,-0.277 1.42,-0.039 1.94,0.68 l 0.6,0.777 c 36.25,46.512 87.45,72.777 141.29,72.777 z M 3339.79,625.188 c 74.67,0 129.5,106 129.5,199.582 0,22.582 -5.33,77.472 -57.41,77.472 -52.96,0 -97.65,-60.336 -115,-151.824 -5.93,-31.297 -22.5,-125.23 42.91,-125.23"
             style="fill:#231f20;fill-opacity:1;fill-rule:nonzero;stroke:none"
             id="path38" /><path
             d="m 2407.4,1176.32 139.76,0 c 0.21,0 0.41,-0.1 0.55,-0.25 0.13,-0.2 0.17,-0.4 0.13,-0.6 l -72.91,-383.486 c -0.05,-0.238 0.04,-0.476 0.28,-0.574 0.19,-0.129 0.46,-0.039 0.63,0.137 l 187.63,216.393 c 0.11,0.16 0.32,0.24 0.5,0.24 l 153.29,0 c 0.29,0 0.56,-0.16 0.68,-0.41 0.04,-0.11 0.04,-0.2 0.04,-0.31 0,-0.15 -0.04,-0.34 -0.16,-0.46 L 2623.1,787.688 2741.88,529.965 c 0.08,-0.078 0.08,-0.18 0.08,-0.281 0,-0.137 -0.04,-0.282 -0.11,-0.375 -0.14,-0.219 -0.39,-0.336 -0.61,-0.336 l -151.3,0 c -0.26,0 -0.56,0.156 -0.66,0.41 L 2474.4,784.148 c -0.08,0.215 -0.27,0.34 -0.51,0.321 -0.25,-0.02 -0.4,-0.184 -0.48,-0.422 l -48.36,-254.5 c -0.06,-0.34 -0.34,-0.574 -0.69,-0.574 l -139.77,0 c -0.2,0 -0.4,0.097 -0.55,0.254 -0.12,0.175 -0.17,0.394 -0.12,0.582 l 122.77,645.941 c 0.07,0.34 0.36,0.57 0.71,0.57"
             style="fill:#231f20;fill-opacity:1;fill-rule:nonzero;stroke:none"
             id="path40" /><path
             d="m 4763.45,1017.96 c 100.03,0 166.78,-58.128 166.78,-144.331 0,-39.856 -12.95,-72.641 -38.52,-97.551 -46.82,-45.668 -134.86,-66.574 -269.49,-63.414 l -1.52,0.016 c -0.05,0.023 -0.05,0 -0.05,0 -0.03,-0.016 -0.03,-0.016 -0.03,-0.039 l 0.08,-1.512 c 0.44,-13.875 5.26,-33.438 14.29,-46.098 18.4,-23.261 50.98,-35.926 91.32,-35.926 58.97,0 110.11,14.317 165.67,46.36 0.25,0.144 0.53,0.117 0.76,-0.039 0.25,-0.156 0.33,-0.434 0.29,-0.692 l -22.4,-117.789 c -0.03,-0.222 -0.17,-0.406 -0.35,-0.504 -67.71,-34.453 -147.11,-38.187 -178.16,-38.187 -132.29,0 -207.86,73.535 -207.86,201.984 0,74.035 27.19,148.246 74.54,203.574 52,60.731 124.69,94.148 204.65,94.148 z m 33.47,-144.331 c 0,24.734 -20.46,40.344 -51.09,40.344 -60.66,0 -99.63,-49.106 -110.96,-95.45 l -0.41,-1.691 c 0,0 -0.04,-0.059 0,-0.098 0.04,-0.019 0.04,-0.039 0.04,-0.039 l 1.78,0 c 82.29,-0.535 128.67,7.918 149,28.047 7.83,7.793 11.64,17.281 11.64,28.887"
             style="fill:#231f20;fill-opacity:1;fill-rule:evenodd;stroke:none"
             id="path42" /><path
             d="m 4985.03,606.617 -6.85,0 -2.53,-13.691 -2.55,-13.602 7.45,0 c 3.42,0.059 5.72,0.102 7.54,0.223 1.98,0.137 3.51,0.41 5.14,0.914 6.43,1.867 10.96,6.559 12.09,12.559 1.1,5.949 -1.6,10.621 -7.32,12.453 -1.48,0.531 -2.79,0.769 -4.77,0.925 -1.79,0.118 -4.03,0.137 -7.44,0.219 l -0.76,0 z m -14.2,8.731 c 0.05,0.136 0.16,0.254 0.33,0.254 l 15.49,0 0.18,-0.012 c 3.96,-0.059 6.58,-0.078 8.62,-0.242 2.7,-0.2 4.77,-0.614 6.88,-1.356 7.87,-2.613 12.35,-8.863 12.35,-16.816 0,-1.367 -0.14,-2.797 -0.42,-4.25 -1.83,-9.778 -8,-17.738 -19.37,-20.852 l 9.96,-29.367 c 0,-0.039 0,-0.059 0,-0.098 0,-0.062 0,-0.121 -0.02,-0.16 -0.07,-0.097 -0.15,-0.14 -0.15,-0.14 l -10.19,0 c 0,0 -0.24,0.082 -0.28,0.199 l -9.5,27.972 -6.24,-0.14 -7.09,0 -5.2,-27.793 c -0.04,-0.137 -0.15,-0.238 -0.15,-0.238 l -8.52,0 c -0.08,0 -0.2,0.043 -0.23,0.121 -0.04,0.058 -0.07,0.14 -0.07,0.238 l 5.26,28.031 0.05,0.352 4.18,21.988 4.13,22.309 z m -48.37,-36.563 c 3.1,34.238 33.31,61.988 67.51,61.988 34.24,0 59.46,-27.75 56.41,-61.988 -3.1,-34.187 -33.31,-61.926 -67.54,-61.926 -34.21,0 -59.46,27.739 -56.38,61.926 z m 8.43,-0.754 c -2.67,-29.304 18.71,-52.726 47.95,-52.726 29.8,0 56.44,24.379 59.12,54.242 2.62,29.336 -18.77,52.781 -47.99,52.781 -29.78,0 -56.41,-24.371 -59.08,-54.297"
             style="fill:#231f20;fill-opacity:1;fill-rule:nonzero;stroke:none"
             id="path44" /><path
             d="m 2701.51,53.4297 -39.64,0 c -0.22,0 -0.41,0.1094 -0.55,0.2617 -0.11,0.1602 -0.2,0.3789 -0.15,0.5781 l 45.44,239.3395 c 0.08,0.34 0.35,0.602 0.7,0.602 l 39.67,0 c 0.23,0 0.43,-0.109 0.57,-0.262 0.14,-0.187 0.17,-0.379 0.14,-0.597 L 2702.23,54.0117 c -0.08,-0.3398 -0.35,-0.582 -0.72,-0.582"
             style="fill:#231f20;fill-opacity:1;fill-rule:nonzero;stroke:none"
             id="path46" /><path
             d="m 4069.35,53.4297 -25.24,0 c -0.19,0 -0.4,0.1094 -0.57,0.2617 -0.11,0.1602 -0.15,0.3789 -0.11,0.5781 l 18.32,96.0585 c 0.89,5.652 1.24,13.402 0.81,18.832 -1.72,21.77 -15.59,34.77 -37.14,34.77 -24.69,0 -47.75,-23.301 -53.72,-54.18 l -17.69,-95.7383 c -0.09,-0.3398 -0.36,-0.582 -0.72,-0.582 l -25.25,0 c -0.19,0 -0.39,0.1094 -0.56,0.2617 -0.11,0.1602 -0.15,0.3789 -0.11,0.5781 l 18,96.0585 c 1.1,5.211 1.61,12.942 1.1,18.832 -1.64,21.449 -16.01,34.77 -37.44,34.77 -24.68,0 -47.75,-23.301 -53.71,-54.18 l -18.05,-95.7383 c -0.03,-0.3398 -0.36,-0.582 -0.67,-0.582 l -25.26,0 c -0.23,0 -0.43,0.1094 -0.55,0.2617 -0.12,0.1602 -0.19,0.3789 -0.16,0.5781 l 31.94,169.5005 c 0.06,0.339 0.33,0.589 0.7,0.589 l 25.25,0 c 0.2,0 0.41,-0.089 0.55,-0.25 0.13,-0.16 0.17,-0.379 0.13,-0.597 l -4.54,-24.813 c 14.65,17.653 29.51,29.289 52.71,29.289 24.5,0 43.59,-13.937 51.43,-37.359 14.47,24.449 36.89,37.359 65,37.359 31.37,0 54.11,-21.359 56.61,-53.129 0.54,-6.461 -0.62,-13.988 -1.72,-21.269 -0.28,-1.731 -0.52,-3.442 -0.82,-5.129 l -17.8,-94.4493 c -0.09,-0.3398 -0.37,-0.582 -0.72,-0.582"
             style="fill:#231f20;fill-opacity:1;fill-rule:nonzero;stroke:none"
             id="path48" /><path
             d="m 4648.35,53.4297 -25.26,0 c -0.23,0 -0.42,0.1094 -0.56,0.2617 -0.12,0.1602 -0.19,0.3789 -0.15,0.5781 l 18.02,96.0585 c 1.09,5.242 1.58,12.981 1.09,18.832 -1.7,21.77 -16.68,34.77 -40.06,34.77 -26.44,0 -50.15,-22.789 -56.34,-54.18 l -18.05,-95.7383 c -0.06,-0.3398 -0.37,-0.582 -0.68,-0.582 l -25.26,0 c -0.21,0 -0.45,0.1094 -0.54,0.2617 -0.14,0.1602 -0.2,0.3789 -0.16,0.5781 l 31.91,169.5005 c 0.08,0.339 0.38,0.589 0.73,0.589 l 25.23,0 c 0,0 0.41,-0.089 0.58,-0.25 0.12,-0.16 0.16,-0.379 0.12,-0.597 l -4.53,-24.813 c 12.35,14.813 28.69,29.289 55.37,29.289 33.23,0 56.38,-20.859 58.93,-53.129 0.51,-6.738 -0.2,-15.148 -2.23,-26.429 l -17.49,-94.4183 c -0.05,-0.3398 -0.36,-0.582 -0.67,-0.582"
             style="fill:#231f20;fill-opacity:1;fill-rule:nonzero;stroke:none"
             id="path50" /><path
             d="m 4697.16,0 c -13.87,0 -26.09,3.80078 -38.37,11.9297 -0.3,0.2187 -0.44,0.6484 -0.19,0.9687 l 12.29,18.9297 c 0.07,0.1719 0.25,0.2735 0.47,0.3203 0.2,0 0.41,0 0.52,-0.1172 6.31,-4.6718 17.82,-8.3124 26.17,-8.3124 15.14,0 27.07,8.8515 41.02,30.5507 l -44.06,169.1995 c -0.02,0.203 0,0.441 0.18,0.621 0.09,0.16 0.31,0.269 0.53,0.269 l 26.22,0 c 0.32,0 0.59,-0.238 0.68,-0.55 l 34.3,-139.8402 79.12,140.0192 c 0.12,0.242 0.38,0.371 0.65,0.371 l 28.54,0 c 0.25,0 0.48,-0.129 0.6,-0.347 0.13,-0.242 0.13,-0.5 0,-0.723 L 4763.54,47.9492 C 4742.81,13.8711 4723.58,0 4697.16,0"
             style="fill:#231f20;fill-opacity:1;fill-rule:nonzero;stroke:none"
             id="path52" /><path
             d="m 3519.23,49.5 c -37.54,0 -77.45,25.6719 -81.15,74.75 -2.03,27.301 7.24,54.27 25.44,73.969 17.43,18.91 41.86,29.769 67,29.769 41.15,0 62.15,-25.09 70.96,-40.039 0.21,-0.328 0.09,-0.758 -0.22,-0.961 l -19.34,-12.777 c -0.27,-0.223 -0.74,-0.141 -0.98,0.199 -9.34,13.891 -23.55,29.84 -50.38,29.84 -16.77,0 -33.32,-7.68 -45.33,-21.078 -14.28,-15.5 -21.55,-36.692 -19.93,-58.172 2.56,-33.9883 28.88,-51.7812 53.58,-51.7812 17.52,0 32.26,6.8007 47.86,22.0898 0.16,0.1406 0.31,0.2109 0.54,0.2109 l 0,0 c 0.17,-0.0195 0.35,-0.0703 0.48,-0.2109 l 15.96,-16.4102 c 0.25,-0.2695 0.25,-0.7187 0,-0.9882 C 3564.63,58.5195 3544.16,49.5 3519.23,49.5"
             style="fill:#231f20;fill-opacity:1;fill-rule:nonzero;stroke:none"
             id="path54" /><path
             d="m 3013.27,49.8086 c -32.46,0 -55.06,20.6016 -57.56,52.4724 -0.72,9.028 0.94,20.078 2.86,30.68 l 17.85,94.43 c 0.04,0.339 0.37,0.597 0.68,0.597 l 39.69,0 c 0.19,0 0.39,-0.097 0.54,-0.258 0.13,-0.179 0.16,-0.378 0.13,-0.601 l -18.34,-96.078 c -0.97,-5.332 -1.31,-12.391 -0.92,-17.16 1.33,-16.8715 12.7,-26.559 31.26,-26.559 21.43,0 38.49,16.758 43.41,42.688 l 18.62,97.371 c 0.07,0.339 0.36,0.597 0.71,0.597 l 39.63,0 c 0.25,0 0.45,-0.097 0.58,-0.258 0.11,-0.179 0.19,-0.378 0.15,-0.601 L 3099.9,54.0117 c -0.06,-0.3398 -0.34,-0.582 -0.71,-0.582 l -39.63,0 c -0.24,0 -0.43,0.1094 -0.57,0.2617 -0.1,0.1602 -0.19,0.3789 -0.14,0.5781 l 3.7,19.9102 c -11.13,-11.7188 -26.64,-24.3711 -49.28,-24.3711"
             style="fill:#231f20;fill-opacity:1;fill-rule:nonzero;stroke:none"
             id="path56" /><path
             d="m 2573.23,49.5 c -47.03,0 -82.2,31.9492 -85.67,77.711 -2.07,27.687 6.88,53.859 25.17,73.641 18.02,19.519 43.47,30.726 69.87,30.726 39.91,0 62.02,-21.59 73.56,-39.68 0.19,-0.32 0.11,-0.738 -0.21,-0.957 l -29.17,-20.992 c -0.13,-0.117 -0.4,-0.097 -0.54,-0.14 -0.19,0.043 -0.35,0.14 -0.45,0.3 -9.23,13.301 -20.98,25.61 -43.91,25.61 -13.12,0 -26.27,-6.117 -36.14,-16.821 -12.29,-13.699 -18.56,-32.41 -17.19,-51.269 1.84,-24.688 20.13,-42.5978 43.43,-42.5978 15.63,0 27.82,5.5391 42.21,19.1408 0.14,0.117 0.34,0.199 0.51,0.199 0.17,-0.019 0.39,-0.082 0.52,-0.262 l 22.88,-25.8981 c 0.28,-0.2812 0.24,-0.7226 -0.02,-0.9726 C 2624.01,63.5195 2605.34,49.5 2573.23,49.5"
             style="fill:#231f20;fill-opacity:1;fill-rule:nonzero;stroke:none"
             id="path58" /><path
             d="m 2360.77,53.4297 -39.63,0 c -0.24,0 -0.45,0.1094 -0.56,0.2617 -0.13,0.1602 -0.21,0.3789 -0.17,0.5781 l 18.02,96.0585 c 1.15,5.274 1.67,12.172 1.27,17.203 -1.35,16.879 -12.84,26.559 -31.61,26.559 -21.44,0 -38.49,-16.758 -43.46,-42.711 l -18.25,-97.3673 c -0.03,-0.3398 -0.35,-0.582 -0.68,-0.582 l -40,0 c -0.19,0 -0.39,0.1094 -0.55,0.2617 -0.12,0.1602 -0.16,0.3789 -0.12,0.5781 l 32.61,173.1215 c 0.07,0.339 0.35,0.597 0.71,0.597 l 39.64,0 c 0.23,0 0.44,-0.097 0.56,-0.258 0.11,-0.179 0.2,-0.378 0.16,-0.601 l -3.74,-19.609 c 11.25,11.558 26.92,24.058 49.66,24.058 32.25,0 54.71,-20.598 57.22,-52.457 0.75,-9.41 -1.08,-20.762 -2.87,-30.691 l -17.49,-94.4183 c -0.08,-0.3398 -0.37,-0.582 -0.72,-0.582"
             style="fill:#231f20;fill-opacity:1;fill-rule:nonzero;stroke:none"
             id="path60" /><path
             d="m 1298.38,53.4297 -25.25,0 c -0.2,0 -0.4,0.1094 -0.55,0.2617 -0.13,0.1602 -0.17,0.3789 -0.13,0.5781 l 18.01,96.0585 c 1.12,5.211 1.59,12.942 1.12,18.832 -1.71,21.77 -16.7,34.77 -40.1,34.77 -26.47,0 -50.12,-22.789 -56.32,-54.18 l -18.05,-95.7383 c -0.04,-0.3398 -0.36,-0.582 -0.67,-0.582 l -25.26,0 c -0.23,0 -0.43,0.1094 -0.55,0.2617 -0.12,0.1602 -0.21,0.3789 -0.16,0.5781 l 45.45,239.3395 c 0.07,0.34 0.35,0.602 0.71,0.602 l 25.25,0 c 0.2,0 0.4,-0.109 0.56,-0.262 0.12,-0.187 0.16,-0.379 0.12,-0.597 l -18.02,-94.633 c 12.33,14.812 28.67,29.269 55.3,29.269 33.26,0 56.39,-20.859 58.97,-53.129 0.48,-6.757 -0.19,-15.148 -2.22,-26.429 l -17.5,-94.4183 c -0.08,-0.3398 -0.35,-0.582 -0.71,-0.582"
             style="fill:#231f20;fill-opacity:1;fill-rule:nonzero;stroke:none"
             id="path62" /><path
             d="m 1372.53,149.93 107.7,0 c 0.73,3.121 0.88,7.281 0.49,12.351 -1.64,20.778 -14.31,42.957 -45.01,42.957 -17.06,0 -32.64,-6.957 -45.08,-20.117 -8.51,-9.223 -14.76,-21.391 -18.1,-35.191 z M 1425.65,49.5 c -45.33,0 -78.05,29.2383 -81.46,72.781 -2.2,27.91 7.63,56.66 26.31,76.938 17.34,18.801 39.76,28.769 64.85,28.769 45.72,0 68.8,-32.937 71.37,-65.59 0.83,-10.757 -0.26,-21.648 -3.43,-32.378 -0.07,-0.321 -0.35,-0.52 -0.66,-0.52 l -132.09,0 c -0.07,-1.82 0.05,-3.66 0.16,-5.449 l 0.07,-0.68 c 2.39,-30.6522 23.79,-50.4726 54.48,-50.4726 22.5,0 36.26,7.9102 50.06,19.8204 0.12,0.121 0.28,0.1796 0.48,0.1796 0.27,-0.0586 0.39,-0.0976 0.52,-0.2578 l 14.43,-16.7187 c 0.27,-0.3008 0.24,-0.7422 -0.05,-0.9922 C 1477.58,63.1016 1458.34,49.5 1425.65,49.5"
             style="fill:#231f20;fill-opacity:1;fill-rule:nonzero;stroke:none"
             id="path64" /><path
             d="m 1088.45,50.4805 c -26.25,0 -42.82,12.7383 -44.46,34.1093 -0.4,5.4493 -0.03,11.9688 1,17.8712 l 18.92,98.187 -22.39,0 c -0.19,0 -0.4,0.09 -0.55,0.262 -0.12,0.16 -0.16,0.379 -0.12,0.578 l 4.22,22.282 c 0.04,0.339 0.35,0.589 0.67,0.589 l 22.98,0 9.79,50.582 c 0.07,0.321 0.35,0.579 0.71,0.579 l 24.85,0 c 0.2,0 0.39,-0.098 0.56,-0.258 0.12,-0.184 0.16,-0.403 0.12,-0.59 l -9.75,-50.313 52.49,0 c 0.2,0 0.39,-0.089 0.56,-0.25 0.11,-0.179 0.15,-0.379 0.11,-0.597 l -4.22,-22.293 c -0.03,-0.328 -0.37,-0.571 -0.67,-0.571 l -52.72,0 -18.77,-97.128 c -0.24,-2.829 -0.64,-8.2895 -0.35,-12.27 1.03,-13.8203 13.51,-16.7188 23.81,-16.7188 7.61,0 15.67,1.7305 23.85,5.1797 0.25,0.1094 0.53,0.0703 0.74,-0.0898 0.22,-0.1719 0.3,-0.4414 0.27,-0.6992 l -4.5,-22.9414 c -0.03,-0.2422 -0.22,-0.4414 -0.44,-0.5117 -8.27,-3.5079 -16.25,-4.9883 -26.71,-4.9883"
             style="fill:#231f20;fill-opacity:1;fill-rule:nonzero;stroke:none"
             id="path66" /><path
             d="m 2845.54,195.719 c -13.42,0 -26.37,-5.867 -36.52,-16.5 -11.63,-12.297 -18.28,-31.399 -16.94,-48.629 2.2,-27.91 20.3,-45.2189 47.17,-45.2189 13.9,0 27.2,6 36.49,16.4809 11.65,12.257 18.29,31.347 16.98,48.636 -2.24,27.903 -20.33,45.231 -47.18,45.231 z M 2839.64,49.5 c -48.25,0 -84.53,32.7617 -88.23,79.691 -2.06,26.2 7.08,52.457 25.1,72 17.7,19.598 42.06,30.387 68.62,30.387 24.16,0 45.45,-7.84 61.46,-22.656 15.53,-14.32 25.02,-34.692 26.82,-57.344 2.05,-26.359 -7.09,-52.4764 -25.1,-71.6991 C 2890.58,60.3008 2866.2,49.5 2839.64,49.5"
             style="fill:#231f20;fill-opacity:1;fill-rule:nonzero;stroke:none"
             id="path68" /><path
             d="m 3709.05,204.25 c -17.15,0 -33.47,-7.488 -46.01,-21.09 -13.87,-15.039 -21.19,-36.051 -19.59,-56.172 2.58,-32.9568 24.28,-53.4294 56.66,-53.4294 17.32,0 33.66,7.3633 45.99,20.7305 13.83,15.0509 21.19,36.0389 19.6,56.1989 -2.58,33.16 -24.29,53.762 -56.65,53.762 z M 3700.21,49.5 c -45.77,0 -80.2,31.5508 -83.72,76.711 -2.09,26.367 7.06,52.508 25.07,71.699 17.63,19.102 42.16,30.078 67.36,30.078 45.93,0 80.52,-31.429 84.06,-76.41 2.03,-25.937 -7.11,-52.1796 -25.1,-71.9999 C 3750.26,60.4492 3725.62,49.5 3700.21,49.5"
             style="fill:#231f20;fill-opacity:1;fill-rule:nonzero;stroke:none"
             id="path70" /><path
             d="m 4218.45,204.25 c -17.66,0 -35.06,-8.18 -47.87,-22.391 -14.66,-15.91 -22.13,-36.5 -20.57,-56.5 2.36,-30.2184 25.86,-52.1402 55.87,-52.1402 16.83,0 32.61,6.8906 44.5,19.4414 14.07,15.6018 21.07,37.6408 19.28,60.4298 -2.37,30.601 -22.97,51.16 -51.21,51.16 z m -92.56,-203.28125 -25.24,0 c -0.23,0 -0.45,0.11328 -0.56,0.26172 -0.12,0.16015 -0.2,0.37891 -0.16,0.57031 l 41.9,221.96922 c 0.08,0.339 0.37,0.589 0.72,0.589 l 25.25,0 c 0.2,0 0.4,-0.089 0.55,-0.25 0.12,-0.179 0.16,-0.379 0.12,-0.597 l -5,-26.422 c 17.32,20.769 37.1,30.898 60.44,30.898 39.95,0 70.2,-29.797 73.54,-72.468 2.33,-29.579 -7.01,-58.0903 -25.55,-78.2583 C 4255.42,59.3594 4233.39,49.5 4209.93,49.5 c -36.91,0 -56.48,21.6094 -66.54,40.5117 L 4126.57,1.55078 c -0.05,-0.33984 -0.37,-0.58203 -0.68,-0.58203"
             style="fill:#231f20;fill-opacity:1;fill-rule:nonzero;stroke:none"
             id="path72" /><path
             d="m 4391.18,139.34 c -16.52,0 -30.1,-4.93 -38.38,-13.879 -6.4,-6.633 -9.38,-15.281 -8.58,-25.031 1.4,-17.93 16.18,-29.5003 37.68,-29.5003 29.71,0 56.31,21.4609 61.9,49.9223 l 2.24,11.128 c -17.02,4.758 -36.46,7.36 -54.86,7.36 z M 4375.6,49.8398 c -26.22,0 -55.61,14.8711 -58.17,47.5391 -1.25,16.0701 3.24,30.2111 13.11,40.8401 12.56,13.679 33.24,21.242 58.2,21.242 18.38,0 38.17,-2.973 60.44,-9 l 0.56,3.148 c 1,5.172 1.39,11.282 1.08,15.551 -1.76,22.09 -18.35,33.781 -47.92,33.781 -19.69,0 -34.75,-4.461 -46.91,-8.812 -0.25,-0.039 -0.41,-0.039 -0.57,0.031 -0.2,0.09 -0.31,0.238 -0.4,0.442 l -5.87,20.976 c -0.12,0.352 0.07,0.742 0.39,0.852 18.41,7.082 35.55,10.242 55.55,10.242 42.71,0 68.75,-19.363 71.4,-53.121 0.52,-7.09 -0.11,-15.43 -1.83,-23.5 l -17.99,-96.0393 c -0.04,-0.3398 -0.37,-0.582 -0.68,-0.582 l -24.61,0 c -0.25,0 -0.45,0.1094 -0.57,0.2617 -0.12,0.1602 -0.19,0.3789 -0.16,0.5977 l 4.6,23.7812 C 4419.48,59.3281 4399.44,49.8398 4375.6,49.8398"
             style="fill:#231f20;fill-opacity:1;fill-rule:nonzero;stroke:none"
             id="path74" /><path
             d="m 3243.02,196.059 c -13.93,0 -26.99,-5.868 -36.86,-16.5 -12.14,-13.168 -18.21,-32.207 -16.62,-52.227 1.97,-25.504 19.24,-41.9609 43.95,-41.9609 14.49,0 28.61,6.4805 38.67,17.7889 12.58,13.602 18.93,31.781 17.5,49.93 -1.96,25.301 -21.12,42.969 -46.64,42.969 z M 3221.06,49.8086 c -40.8,0 -70.53,30.0508 -74.08,74.7814 -2.34,30.199 6.7,58.101 25.53,78.57 16.66,18.059 39.73,28.418 63.26,28.418 26.33,0 46.2,-10.898 60.68,-33.238 l 17.93,95.269 c 0.08,0.34 0.37,0.602 0.71,0.602 l 39.69,0 c 0.2,0 0.41,-0.109 0.54,-0.262 0.14,-0.187 0.18,-0.379 0.14,-0.597 L 3310.34,54.0117 c -0.04,-0.3398 -0.38,-0.582 -0.68,-0.582 l -39.69,0 c -0.24,0 -0.43,0.1094 -0.56,0.2617 -0.12,0.1602 -0.2,0.3789 -0.14,0.5977 l 3.92,20.4609 c -15.93,-17 -32.56,-24.9414 -52.13,-24.9414"
             style="fill:#231f20;fill-opacity:1;fill-rule:nonzero;stroke:none"
             id="path76" /><path
             d="m 1914.86,196.059 c -14.59,0 -28.46,-6.329 -39.04,-17.821 -12.37,-13.386 -18.61,-31.597 -17.14,-49.937 1.95,-24.879 21.43,-42.9299 46.28,-42.9299 14.12,0 27.52,6 36.86,16.4809 12.36,13.039 18.29,31.597 16.66,52.238 -2.02,25.488 -19.12,41.969 -43.62,41.969 z m -79.09,-195.09025 -39.99,0 c -0.24,0 -0.45,0.11328 -0.57,0.26172 -0.11,0.16015 -0.19,0.37891 -0.15,0.57031 l 42.59,225.59022 c 0.07,0.339 0.35,0.597 0.72,0.597 l 39.68,0 c 0,0 0.39,-0.097 0.55,-0.258 0.11,-0.179 0.15,-0.402 0.11,-0.601 l -3.92,-20.539 c 16.45,17.262 32.63,24.988 52.16,24.988 40.76,0 70.53,-30.027 74.08,-74.738 2.34,-30.27 -6.73,-58.1603 -25.57,-78.6017 -16.63,-18.0391 -39.53,-28.3985 -62.87,-28.3985 -26.19,0 -46.76,11.1797 -61.03,33.2188 l -15.1,-81.50782 c -0.05,-0.33984 -0.37,-0.58203 -0.69,-0.58203"
             style="fill:#231f20;fill-opacity:1;fill-rule:nonzero;stroke:none"
             id="path78" /><path
             d="m 2065.23,153.859 88.39,0 c 0.68,3.051 0.88,7.071 0.52,11.379 -1.6,20.321 -15.15,32.442 -36.3,32.442 -14.79,0 -28,-5.801 -38.13,-16.809 -6.68,-7.223 -11.65,-16.543 -14.48,-27.012 z M 2109.13,49.5 c -48.94,0 -81.63,29.2617 -85.32,76.398 -2.2,27.524 7.59,55.903 26.07,75.942 17.65,19.172 41.92,29.738 68.36,29.738 42.39,0 71.92,-26.637 75.18,-67.867 0.96,-12.25 -0.68,-25.051 -4.69,-37.02 -0.12,-0.269 -0.4,-0.48 -0.68,-0.48 l -125.16,0 c 2.41,-26.8321 20.2,-42.8126 47.63,-42.8126 15.55,0 27.87,4.793 42.51,16.5625 0.27,0.2111 0.71,0.2111 0.99,-0.1015 l 21.02,-25.25 c 0.24,-0.3008 0.2,-0.7383 -0.07,-0.9883 C 2156.8,57.3906 2135.29,49.5 2109.13,49.5"
             style="fill:#231f20;fill-opacity:1;fill-rule:nonzero;stroke:none"
             id="path80" /><path
             d="m 1704.61,195.719 c -13.4,0 -26.37,-5.867 -36.5,-16.5 -11.65,-12.278 -18.3,-31.367 -16.94,-48.629 2.19,-27.91 20.24,-45.2189 47.16,-45.2189 13.88,0 27.19,6 36.5,16.4809 11.64,12.257 18.3,31.359 16.93,48.636 -2.19,27.903 -20.27,45.231 -47.15,45.231 z M 1698.73,49.5 c -48.28,0 -84.58,32.7617 -88.23,79.691 -2.07,26.219 7.07,52.481 25.09,72 17.69,19.598 42.06,30.387 68.62,30.387 24.18,0 45.45,-7.84 61.47,-22.656 15.46,-14.32 25.01,-34.692 26.8,-57.344 2.07,-26.379 -7.07,-52.4999 -25.1,-71.6991 C 1749.66,60.3008 1725.23,49.5 1698.73,49.5"
             style="fill:#231f20;fill-opacity:1;fill-rule:nonzero;stroke:none"
             id="path82" /></g></g></g></g></svg>